HIERARCHY
ROOT Hips
{
	OFFSET 0.000000 0.000000 0.000000 
	CHANNELS 6 Xposition Yposition Zposition Zrotation Xrotation Yrotation
	JOINT Spine
	{
		OFFSET -0.000000 8.280624 0.000000 
		CHANNELS 3 Zrotation Xrotation Yrotation
		JOINT Spine1
		{
			OFFSET -0.000000 24.860672 0.000000 
			CHANNELS 3 Zrotation Xrotation Yrotation
			JOINT Neck
			{
				OFFSET -0.000000 24.758574 2.250779 
				CHANNELS 3 Zrotation Xrotation Yrotation
				JOINT Head
				{
					OFFSET -0.000000 14.137651 -2.019665 
					CHANNELS 3 Zrotation Xrotation Yrotation
					End Site
					{
						OFFSET -0.000000 25.245806 0.000000 
					}
				}
			}
			JOINT LeftShoulder
			{
				OFFSET 4.021533 22.370487 -0.301823 
				CHANNELS 3 Zrotation Xrotation Yrotation
				JOINT LeftArm
				{
					OFFSET 12.928750 0.000000 0.000000 
					CHANNELS 3 Zrotation Xrotation Yrotation
					JOINT LeftForeArm
					{
						OFFSET 29.110218 0.000000 0.000000 
						CHANNELS 3 Zrotation Xrotation Yrotation
						JOINT LeftHand
						{
							OFFSET 26.112843 0.000000 0.000000 
							CHANNELS 3 Zrotation Xrotation Yrotation
							End Site
							{
								OFFSET 15.147485 0.000000 0.000000 
							}
						}
					}
				}
			}
			JOINT RightShoulder
			{
				OFFSET -4.040554 22.370487 -0.301823 
				CHANNELS 3 Zrotation Xrotation Yrotation
				JOINT RightArm
				{
					OFFSET -12.928750 0.000000 0.000000 
					CHANNELS 3 Zrotation Xrotation Yrotation
					JOINT RightForeArm
					{
						OFFSET -29.110218 0.000000 0.000000 
						CHANNELS 3 Zrotation Xrotation Yrotation
						JOINT RightHand
						{
							OFFSET -26.112843 0.000000 0.000000 
							CHANNELS 3 Zrotation Xrotation Yrotation
							End Site
							{
								OFFSET -15.147485 0.000000 0.000000 
							}
						}
					}
				}
			}
		}
	}
	JOINT LeftUpLeg
	{
		OFFSET 10.098323 0.000000 0.000000 
		CHANNELS 3 Zrotation Xrotation Yrotation
		JOINT LeftLeg
		{
			OFFSET -0.000000 -44.180832 0.000000 
			CHANNELS 3 Zrotation Xrotation Yrotation
			JOINT LeftFoot
			{
				OFFSET -0.000000 -40.401024 0.000000 
				CHANNELS 3 Zrotation Xrotation Yrotation
				JOINT LeftToeBase
				{
					OFFSET -0.000000 -6.563910 15.147485 
					CHANNELS 3 Zrotation Xrotation Yrotation
					End Site
					{
						OFFSET -0.000000 0.000000 4.039329 
					}
				}
			}
		}
	}
	JOINT RightUpLeg
	{
		OFFSET -10.098323 0.000000 0.000000 
		CHANNELS 3 Zrotation Xrotation Yrotation
		JOINT RightLeg
		{
			OFFSET -0.000000 -44.180832 0.000000 
			CHANNELS 3 Zrotation Xrotation Yrotation
			JOINT RightFoot
			{
				OFFSET -0.000000 -40.401024 0.000000 
				CHANNELS 3 Zrotation Xrotation Yrotation
				JOINT RightToeBase
				{
					OFFSET -0.000000 -6.563910 15.147485 
					CHANNELS 3 Zrotation Xrotation Yrotation
					End Site
					{
						OFFSET -0.000000 0.000000 4.039329 
					}
				}
			}
		}
	}
}
MOTION
Frames: 8
Frame Time: 0.008333
-63.930744 101.641701 -25.003481 -26.051159 29.606152 -146.224091 2.116160 13.345757 8.098613 8.947681 -13.674311 9.421148 -0.910891 25.662352 -24.493723 8.210293 15.953204 -25.655890 4.513542 5.458915 -18.644247 -61.217075 19.168215 -35.620575 -41.291397 -14.056614 -81.673355 49.645172 -46.805809 -0.358871 -16.811438 -24.288908 17.972923 46.397892 39.980019 70.042587 -1.193755 -21.446035 19.738712 28.254002 -22.069323 -3.487697 -16.008646 34.551373 -35.191826 -1.129268 5.969180 -10.900027 -6.279826 27.136086 5.931216 0.000000 0.000000 0.000000 -8.739279 58.737850 -16.685738 -2.480827 23.581676 7.305080 16.115492 38.160664 -32.338116 0.000000 0.000000 0.000000 
-64.039482 101.552986 -25.090208 -26.210102 29.167187 -145.500336 2.234877 13.495713 8.329738 8.707438 -13.715060 9.643305 -1.814935 24.928930 -24.234112 8.870082 16.523552 -25.507645 3.862786 5.760428 -18.443600 -61.940456 17.217924 -34.276505 -40.246338 -12.718749 -83.816582 49.832527 -46.050171 -0.073665 -16.736462 -25.217287 18.464849 45.068150 40.338196 71.630219 -1.775053 -21.288130 21.052130 28.302921 -21.825142 -3.593978 -15.801683 34.570175 -36.197495 -1.143438 5.682051 -10.813065 -6.204608 26.981823 5.807193 0.000000 0.000000 0.000000 -8.078189 58.824871 -16.936161 -2.517560 23.437744 8.139587 16.581381 38.055218 -32.611134 0.000000 0.000000 0.000000 
-64.125267 101.493011 -25.157495 -26.307827 28.753550 -144.958145 2.210828 13.839741 8.725904 8.528988 -14.130010 10.053180 -1.925217 24.461130 -24.193880 8.939716 16.587589 -25.472229 3.311118 6.185058 -18.312220 -62.602821 15.567332 -33.363174 -39.892471 -11.356414 -85.561867 49.700459 -46.779652 -3.424125 -16.783716 -25.620146 18.694523 42.961990 40.605705 73.801262 -2.430309 -21.399405 22.504034 28.362236 -21.758665 -3.438400 -15.611687 34.521534 -36.800575 -1.173028 5.406830 -10.891513 -6.118459 26.913069 5.647816 0.000000 0.000000 0.000000 -7.609797 58.831642 -17.057262 -2.619315 23.258808 8.551613 16.674595 38.288010 -32.303398 0.000000 0.000000 0.000000 
-64.195251 101.463493 -25.202375 -26.338785 28.350193 -144.566803 2.179521 14.248921 9.232841 8.287546 -14.669508 10.573848 -0.805925 24.891830 -24.865078 8.264493 14.790843 -25.941151 2.796226 6.584726 -18.243864 -63.087257 14.205645 -32.738197 -38.354111 -10.376625 -87.072777 50.114983 -45.947014 -4.424737 -16.914972 -25.919962 18.647640 41.118740 40.823235 75.758842 -2.956068 -21.376112 24.281706 27.633533 -21.678146 -3.901552 -15.442023 34.395725 -37.129936 -1.210014 5.162551 -11.092435 -6.051390 26.913387 5.514148 0.000000 0.000000 0.000000 -7.301942 58.752205 -17.062489 -2.704304 23.103926 9.245947 17.095573 38.373104 -32.512909 0.000000 0.000000 0.000000 
-64.261177 101.460770 -25.229424 -26.310003 27.927267 -144.230087 2.594696 14.578844 9.556139 7.460828 -14.971789 10.869753 -0.860712 24.531191 -24.882193 8.483673 14.607572 -25.946533 2.543541 6.816863 -17.993196 -63.363590 12.678397 -32.162628 -37.150852 -9.244275 -88.524200 50.357510 -45.227333 -5.459670 -17.016628 -26.410196 18.870386 39.332436 40.827785 77.863373 -3.517987 -21.297985 25.759420 26.452898 -21.500666 -4.343812 -15.256209 34.200397 -37.243374 -1.248215 4.947293 -11.600378 -6.048915 26.932652 5.546148 0.000000 0.000000 0.000000 -7.028354 58.603901 -17.151743 -2.793118 22.947193 10.061754 17.708591 38.386616 -32.980404 0.000000 0.000000 0.000000 
-64.331680 101.474396 -25.256693 -26.215109 27.490133 -143.884048 2.940804 14.798808 9.868873 6.900314 -15.197194 11.172396 -1.392038 24.040062 -24.712763 8.955374 14.768640 -25.817804 2.122988 7.015812 -17.759447 -63.365707 11.562886 -31.787046 -35.343529 -8.784734 -90.244186 50.672314 -44.170692 -5.307039 -17.407314 -27.005583 19.198399 37.949131 40.650558 79.654373 -3.986982 -21.192961 27.122707 25.254156 -21.233456 -4.481899 -15.032648 33.952209 -37.311527 -1.271620 4.795900 -12.253456 -6.071422 26.929880 5.655384 0.000000 0.000000 0.000000 -6.659846 58.434288 -17.351025 -2.891024 22.738504 10.522281 17.855770 38.587597 -32.814602 0.000000 0.000000 0.000000 
-64.389496 101.497505 -25.282022 -26.034805 27.028030 -143.473404 3.335832 14.900577 10.148917 6.270419 -15.434460 11.435695 -2.116743 23.470839 -24.454914 9.776187 15.459384 -25.652674 1.756429 7.312380 -17.660912 -63.203400 10.857071 -31.722786 -33.402290 -8.999905 -92.013634 51.008865 -43.560181 -5.485398 -17.734440 -27.363504 19.374699 36.533337 40.289524 81.334938 -4.339540 -21.044601 28.700180 24.195402 -20.966105 -4.782420 -14.668653 33.656429 -37.433064 -1.318879 4.602293 -12.686968 -5.944337 27.024876 5.421060 0.000000 0.000000 0.000000 -6.053757 58.218773 -17.781219 -2.907109 22.439951 10.803934 17.898100 38.969894 -32.665295 0.000000 0.000000 0.000000 
-64.441719 101.527260 -25.305098 -25.808369 26.568037 -142.960068 3.812028 14.899983 10.364079 5.536717 -15.500404 11.616695 -2.268456 23.075127 -24.520027 10.118915 15.430684 -25.722343 1.540594 7.414607 -17.580648 -63.171494 9.897614 -31.578508 -31.972340 -8.778176 -93.590492 51.476440 -43.098827 -6.085226 -18.159851 -27.872698 19.491383 35.335655 39.885910 82.737030 -4.748983 -21.014668 30.372601 23.527458 -20.752228 -4.836660 -14.229501 33.345226 -37.691418 -1.336029 4.469569 -13.297071 -5.915504 27.034050 5.389752 0.000000 0.000000 0.000000 -5.213209 57.981850 -18.482601 -3.014192 22.178555 11.124917 18.067875 39.250393 -32.473721 0.000000 0.000000 0.000000 
